<svg width="49" height="49" viewBox="0 0 49 49" fill="none" xmlns="http://www.w3.org/2000/svg">
<path d="M35.4484 0H13.5516C6.04844 0 0 6.04844 0 13.5516V35.525C0 42.9516 6.04844 49 13.5516 49H35.525C42.9516 49 49 42.9516 49 35.4484V13.5516C49 6.04844 42.9516 0 35.4484 0ZM44.6359 35.4484C44.6359 40.5016 40.5016 44.6359 35.4484 44.6359H13.5516C8.49844 44.6359 4.36406 40.5016 4.36406 35.4484V13.5516C4.36406 8.49844 8.49844 4.36406 13.5516 4.36406H35.525C40.5781 4.36406 44.7125 8.49844 44.7125 13.5516V35.4484H44.6359Z" fill="currentColor"/>
<path d="M24.5 11.8672C17.5328 11.8672 11.8672 17.5328 11.8672 24.5C11.8672 31.4672 17.5328 37.1328 24.5 37.1328C31.4672 37.1328 37.1328 31.4672 37.1328 24.5C37.1328 17.5328 31.4672 11.8672 24.5 11.8672ZM24.5 32.7687C19.9062 32.7687 16.2313 29.0938 16.2313 24.5C16.2313 19.9062 19.9828 16.2313 24.5 16.2313C29.0172 16.2313 32.7687 19.9062 32.7687 24.5C32.7687 29.0938 29.0938 32.7687 24.5 32.7687Z" fill="currentColor"/>
<path d="M37.6684 8.19214C36.8262 8.19214 35.984 8.49839 35.448 9.11089C34.8355 9.72339 34.5293 10.489 34.5293 11.3312C34.5293 12.1734 34.8355 13.0156 35.448 13.5515C36.0605 14.164 36.8262 14.4703 37.6684 14.4703C38.5105 14.4703 39.3527 14.164 39.8887 13.5515C40.5012 12.939 40.8074 12.0968 40.8074 11.3312C40.8074 10.489 40.5012 9.64683 39.8887 9.11089C39.3527 8.49839 38.5105 8.19214 37.6684 8.19214Z" fill="currentColor"/>
</svg>
