<svg width="25" height="25" viewBox="0 0 25 25" fill="none" xmlns="http://www.w3.org/2000/svg">
<path d="M7.86171 24.0923C7.70673 22.6742 7.81672 21.314 8.12669 20.0015L9.37656 14.6158C9.17158 13.9621 9.0166 13.2128 9.0166 12.4635C9.0166 10.7161 9.86151 9.46646 11.1864 9.46646C12.1063 9.46646 12.7812 10.1051 12.7812 11.3396C12.7812 11.7294 12.7012 12.1694 12.5462 12.6697L12.0013 14.4624C11.8913 14.8069 11.8463 15.1312 11.8463 15.4179C11.8463 16.6675 12.8012 17.3715 14.0161 17.3715C16.1859 17.3715 17.7357 15.1237 17.7357 12.2046C17.7357 8.95605 15.6109 6.87921 12.4713 6.87921C8.9716 6.87921 6.75182 9.1572 6.75182 12.3303C6.75182 13.6101 7.14179 14.7994 7.90671 15.6065C7.65673 16.0264 7.39176 16.1068 6.9868 16.1068C5.73693 16.1068 4.54705 14.3443 4.54705 11.9406C4.54705 7.7894 7.87671 4.47551 12.5487 4.47551C17.4533 4.47551 20.5354 7.89249 20.5354 12.109C20.5354 16.3557 17.5357 19.5439 14.2986 19.5439C13.0187 19.5439 11.8938 18.9983 11.1089 18.0152L10.469 20.6075C10.124 21.9526 9.60904 23.2148 8.77912 24.4343C9.94901 24.7938 11.1089 25 12.4988 25C19.4056 25 25 19.4081 25 12.5088C24.9975 5.60445 19.4081 0 12.5013 0C5.59444 0 0 5.59187 0 12.4912C0 17.721 3.21968 22.2317 7.86171 24.0923Z" fill="currentColor"/>
</svg>
