<svg width="19" height="16" viewBox="0 0 19 16" fill="none" xmlns="http://www.w3.org/2000/svg">
<path d="M4.6705 9.32584L0.380178 7.89884C0.380178 7.89884 -0.131996 7.68627 0.0326039 7.20488C0.0662895 7.10563 0.135192 7.02123 0.339602 6.87509C1.29045 6.19832 17.938 0.090994 17.938 0.090994C17.938 0.090994 18.4081 -0.0707734 18.686 0.0370719C18.8131 0.0863056 18.8942 0.141791 18.9624 0.344196C18.9869 0.417656 19.0014 0.574735 18.9999 0.731033C18.9984 0.843567 18.9853 0.947505 18.9754 1.11162C18.8743 2.78166 15.8403 15.2448 15.8403 15.2448C15.8403 15.2448 15.6589 15.974 15.0081 15.999C14.7708 16.0083 14.483 15.9591 14.1392 15.6567C12.863 14.536 8.45094 11.5093 7.47636 10.8443C7.42123 10.8068 7.40592 10.7583 7.39673 10.7106C7.38295 10.6403 7.45798 10.5536 7.45798 10.5536C7.45798 10.5536 15.1398 3.58346 15.3442 2.85199C15.3603 2.79494 15.3006 2.76759 15.2202 2.79182C14.7096 2.98328 5.86557 8.68423 4.88945 9.31411C4.8305 9.34928 4.6705 9.32584 4.6705 9.32584Z" fill="currentColor"/>
</svg>
