<svg width="32" height="20" viewBox="0 0 32 20" fill="none" xmlns="http://www.w3.org/2000/svg">
<path d="M31.141 1.32369C31.34 0.610931 31.141 0 30.0466 0H26.5644C25.669 0 25.271 0.50911 25.072 1.01822C25.072 1.01822 23.2811 5.39657 20.7938 8.3494C19.9979 9.16398 19.5999 9.46944 19.202 9.46944C19.003 9.46944 18.605 9.16398 18.605 8.45122V1.42551C18.605 0.50911 18.406 0.101822 17.6101 0.101822H12.138C11.5411 0.101822 11.2426 0.509109 11.2426 0.916397C11.2426 1.73097 12.536 1.93462 12.6355 4.37834V9.67309C12.6355 10.7931 12.4365 10.9968 12.0385 10.9968C10.8446 10.9968 7.95937 6.51661 6.268 1.52733C5.96952 0.50911 5.57156 0.101822 4.67613 0.101822H1.19391C0.198985 0.101822 0 0.610932 0 1.12004C0 2.03644 1.1939 6.72025 5.47206 12.9314C8.35734 17.2079 12.4365 19.448 16.1177 19.448C18.3065 19.448 18.605 18.9389 18.605 18.0225V14.7642C18.605 13.746 18.804 13.5423 19.5004 13.5423C19.9979 13.5423 20.8933 13.8478 22.9827 15.8842C25.3705 18.328 25.7685 19.3462 27.0618 19.3462H30.5441C31.539 19.3462 32.0365 18.8371 31.738 17.8188C31.4395 16.8006 30.3451 15.3751 28.7532 13.6441C27.9573 12.6259 26.7634 11.6077 26.3654 11.0986C25.8679 10.3858 25.9674 10.0804 26.3654 9.46944C26.4649 9.46944 30.6436 3.36012 31.141 1.32369Z" fill="currentColor"/>
</svg>
