<svg width="20" height="20" viewBox="0 0 20 20" fill="none" xmlns="http://www.w3.org/2000/svg">
<path d="M0 20L1.41278 14.8643C0.541312 13.3615 0.0827901 11.6566 0.0834959 9.90978C0.0857144 4.44568 4.55295 0 10.0418 0C12.7057 0.00130463 15.206 1.03337 17.0861 2.90652C18.9663 4.77967 20.0011 7.26981 20 9.91761C19.9978 15.382 15.5301 19.8279 10.0419 19.8279C10.0416 19.8279 10.0422 19.8279 10.0419 19.8279H10.0379C8.37117 19.8273 6.73352 19.4112 5.2791 18.6218L0 20ZM5.52354 16.8276L5.82576 17.006C7.09655 17.7564 8.55329 18.1537 10.0384 18.1542H10.0418C14.6037 18.1542 18.3168 14.459 18.3186 9.9171C18.3194 7.71619 17.4593 5.64655 15.8966 4.08962C14.3339 2.53259 12.2558 1.67464 10.045 1.67394C5.47957 1.67394 1.76652 5.36886 1.76471 9.91048C1.7641 11.4668 2.20165 12.9827 3.03016 14.2942L3.227 14.6059L2.39083 17.6454L5.52354 16.8276Z" fill="currentColor"/>
<path fill-rule="evenodd" clip-rule="evenodd" d="M14.9642 12.4288C14.9027 12.3183 14.7387 12.2521 14.4926 12.1192C14.2465 11.9867 13.0369 11.3456 12.8114 11.2571C12.5859 11.1687 12.4218 11.1244 12.2578 11.3896C12.0938 11.655 11.6223 12.252 11.4787 12.4287C11.3353 12.6058 11.1917 12.6279 10.9457 12.4952C10.6997 12.3625 9.9069 12.0826 8.96712 11.1796C8.23573 10.477 7.74196 9.60906 7.59838 9.34367C7.45479 9.07848 7.58302 8.9351 7.70627 8.80288C7.81695 8.6842 7.95225 8.49323 8.0753 8.33868C8.19824 8.18369 8.23932 8.07328 8.32139 7.89628C8.40335 7.7196 8.36237 7.56461 8.30085 7.43207C8.23932 7.29943 7.74725 5.99489 7.54224 5.46442C7.34252 4.94769 7.13971 5.01751 6.98874 5.00956C6.84546 5.00161 6.68123 5 6.51721 5C6.35318 5 6.08656 5.06659 5.86111 5.33177C5.63556 5.59706 5 6.23827 5 7.54259C5 8.84702 5.88165 10.1072 6.00469 10.2843C6.12764 10.461 7.73957 13.1381 10.2077 14.2859C10.7947 14.5589 11.253 14.722 11.6103 14.8442C12.1997 15.0458 12.736 15.0174 13.16 14.9492C13.6327 14.8731 14.6157 14.308 14.8207 13.6889C15.0257 13.07 15.0257 12.5394 14.9642 12.4288Z" fill="currentColor"/>
</svg>
