<svg width="176" height="22" viewBox="0 0 176 22" fill="none" xmlns="http://www.w3.org/2000/svg">
<path d="M9.864 0.41143C11.7363 0.41143 13.426 0.640002 14.933 1.14286C16.44 1.64572 17.7643 2.33143 18.8603 3.24572C19.9563 4.16 20.7783 5.25714 21.4177 6.49143C22.0113 7.77143 22.331 9.14286 22.331 10.6971C22.331 12.2514 22.0113 13.6229 21.4177 14.9029C20.824 16.1829 19.9563 17.2343 18.8603 18.1486C17.7643 19.0629 16.44 19.7486 14.933 20.2514C13.426 20.7543 11.6907 20.9829 9.864 20.9829H0V0.41143H9.864ZM3.836 19.7486L1.73533 17.8286H10.138C11.4167 17.8286 12.5127 17.6457 13.563 17.3257C14.5677 17.0057 15.4353 16.5029 16.166 15.8629C16.8967 15.2229 17.4447 14.4914 17.8557 13.6229C18.2667 12.7543 18.4493 11.7943 18.4493 10.6971C18.4493 9.64572 18.2667 8.68572 17.8557 7.77143C17.4447 6.90286 16.8967 6.12572 16.166 5.53143C15.4353 4.89143 14.5677 4.43429 13.563 4.06857C12.5583 3.74857 11.4167 3.56572 10.138 3.56572H1.73533L3.836 1.64572V19.7486Z" fill="white"/>
<path d="M38.5427 0.41143L49.0004 20.9829H44.8904L35.3917 1.78286H36.8531L27.3544 20.9829H23.2444L33.7021 0.41143H38.5427ZM28.4047 16.2743V13.3029H43.6117V16.2743H28.4047Z" fill="white"/>
<path d="M56.17 0.41143V19.3829L54.4347 17.8286H70.829V21.0286H52.2883V0.457145H56.17V0.41143Z" fill="white"/>
<path d="M74.4824 0.41143H78.3184V20.9829H74.4824V0.41143Z" fill="white"/>
<path d="M86.4928 14.3086C86.5841 14.9486 86.8124 15.4971 87.1778 16C87.5431 16.5029 88.0454 16.96 88.6391 17.3257C89.2327 17.6914 89.9634 17.9657 90.7854 18.1486C91.6074 18.3314 92.5208 18.4229 93.4798 18.4229C94.4388 18.4229 95.3064 18.3314 96.1284 18.1943C96.9048 18.0571 97.5898 17.8286 98.1378 17.5543C98.6858 17.28 99.0968 16.9143 99.4164 16.5486C99.7361 16.1371 99.8731 15.7257 99.8731 15.2229C99.8731 14.8114 99.7818 14.4914 99.6448 14.1714C99.5078 13.8971 99.2338 13.6229 98.8684 13.3943C98.5031 13.1657 98.0464 12.9829 97.4528 12.8457C96.8591 12.7086 96.1741 12.5714 95.3064 12.48L90.6028 11.8857C89.2784 11.7029 88.1368 11.4743 87.2234 11.2C86.2644 10.88 85.4881 10.5143 84.8944 10.0571C84.3008 9.6 83.8441 9.05143 83.5244 8.41143C83.2504 7.77143 83.0678 7.04 83.0678 6.21714C83.0678 5.30286 83.2961 4.43429 83.7528 3.65714C84.2094 2.88 84.8944 2.24 85.7164 1.69143C86.5841 1.14286 87.5888 0.731429 88.7761 0.457143C89.9634 0.182857 91.3334 0 92.7948 0C94.2561 0 95.6261 0.137143 96.8591 0.457143C98.0921 0.777143 99.1424 1.23429 100.056 1.78286C100.969 2.37714 101.654 3.06286 102.202 3.84C102.75 4.66286 103.024 5.53143 103.07 6.53714H99.1881C99.0968 5.98857 98.9141 5.48571 98.5944 5.07429C98.2748 4.61714 97.8181 4.25143 97.2701 3.93143C96.7221 3.61143 96.0371 3.38286 95.2608 3.2C94.4844 3.01714 93.6624 2.92571 92.7034 2.92571C91.7901 2.92571 91.0138 3.01714 90.2831 3.15429C89.5524 3.29143 88.9588 3.52 88.4564 3.79429C87.9541 4.06857 87.5431 4.38857 87.2691 4.75429C86.9951 5.12 86.8581 5.57714 86.8581 6.03429C86.8581 6.76571 87.1778 7.31429 87.8171 7.72571C88.4564 8.13714 89.5524 8.41143 91.1051 8.64L95.8544 9.28C97.3158 9.46286 98.5488 9.69143 99.5534 10.0114C100.558 10.2857 101.334 10.6514 101.928 11.1086C102.522 11.52 102.978 12.0686 103.252 12.6629C103.526 13.2571 103.663 13.9886 103.663 14.8571C103.663 15.8629 103.435 16.7314 102.933 17.5543C102.43 18.3771 101.745 19.0629 100.878 19.6114C99.9644 20.16 98.9141 20.6171 97.6354 20.9371C96.3568 21.2571 94.9868 21.3943 93.4341 21.3943C91.8814 21.3943 90.4201 21.2114 89.1414 20.8914C87.8171 20.5714 86.7211 20.0686 85.7621 19.4286C84.8031 18.7886 84.0724 18.0571 83.5244 17.1886C82.9764 16.32 82.6568 15.36 82.6111 14.3086H86.4928Z" fill="white"/>
<path d="M118.277 19.4743H116.496L125.857 0.41143H129.967L119.464 20.9829H115.217L104.714 0.41143H108.824L118.277 19.4743Z" fill="white"/>
<path d="M136.498 19.9314L134.671 17.92H151.568V21.0286H132.57V0.457142H151.431V3.56571H134.671L136.498 1.55428V19.9314ZM150.7 9.18857V12.2057H135.493V9.18857H150.7Z" fill="white"/>
<path d="M153.897 0.41143H175.725V3.61143H153.897V0.41143ZM162.939 2.10286H166.775V21.0286H162.939V2.10286Z" fill="white"/>
</svg>
