<svg width="84" height="22" viewBox="0 0 84 22" fill="none" xmlns="http://www.w3.org/2000/svg">
<path d="M4.93199 0L8.72234 7.72571H7.672L4.11 0.32H4.61234L1.05033 7.72571H0L3.79033 0H4.93199ZM1.59833 5.80572V4.98286H7.03266V5.80572H1.59833Z" fill="#8E98A6"/>
<path d="M10.0923 1.92H11.0513V4.11428L11.0056 4.29714V5.21143L11.0513 5.53143V9.41714H10.0923V1.92ZM11.0969 3.56571C11.3253 3.2 11.5536 2.88 11.8276 2.60571C12.1016 2.33143 12.4213 2.14857 12.7866 2.01143C13.1519 1.87428 13.5173 1.78286 13.9283 1.78286C14.3393 1.78286 14.7503 1.87428 15.1156 2.01143C15.481 2.14857 15.8006 2.37714 16.029 2.65143C16.303 2.92571 16.4856 3.24571 16.6226 3.61143C16.7596 3.97714 16.8509 4.38857 16.8509 4.84571C16.8509 5.30286 16.7596 5.71428 16.6226 6.08C16.4856 6.44571 16.2573 6.76571 16.029 7.04C15.755 7.31428 15.481 7.49714 15.1156 7.68C14.7503 7.81714 14.3849 7.90857 13.9283 7.90857C13.5173 7.90857 13.1519 7.81714 12.7866 7.68C12.4213 7.54286 12.1016 7.31428 11.8276 7.04C11.5536 6.76571 11.2796 6.44571 11.0969 6.08C10.8686 5.71428 10.7316 5.30286 10.6403 4.84571C10.7316 4.34286 10.8686 3.93143 11.0969 3.56571ZM15.7093 3.88571C15.6179 3.61143 15.4809 3.38286 15.2526 3.2C15.0699 3.01714 14.8416 2.83428 14.5676 2.74286C14.2936 2.65143 14.0196 2.56 13.7456 2.56C13.426 2.56 13.152 2.60571 12.878 2.74286C12.604 2.83428 12.3756 3.01714 12.1016 3.2C11.8733 3.38286 11.645 3.61143 11.4623 3.88571C11.2796 4.16 11.097 4.48 11.0056 4.8C11.1426 5.12 11.2796 5.44 11.4623 5.71428C11.645 5.98857 11.8733 6.21714 12.1016 6.4C12.3299 6.58286 12.604 6.76571 12.878 6.85714C13.152 6.94857 13.426 6.99428 13.7456 6.99428C14.0653 6.99428 14.3393 6.94857 14.6133 6.85714C14.8873 6.76571 15.1156 6.58286 15.2983 6.4C15.4809 6.21714 15.6179 5.98857 15.7549 5.71428C15.8463 5.44 15.8919 5.16571 15.8919 4.8C15.8919 4.43428 15.8006 4.16 15.7093 3.88571Z" fill="#8E98A6"/>
<path d="M17.7644 7.68L20.5957 4.34286V5.02857L17.9014 1.87429H19.0431L21.2351 4.38857H20.6871L22.8791 1.87429H23.9751L21.2807 5.02857V4.29714L24.1577 7.68H23.0617L20.6871 4.93714H21.2351L18.8604 7.68H17.7644Z" fill="#8E98A6"/>
<path d="M25.345 7.68V1.92H26.304V7.26857L25.9386 7.22286L30.3683 1.92H31.6013V7.72571H30.688V2.28571L31.0533 2.33143L26.578 7.68H25.345Z" fill="#8E98A6"/>
<path d="M33.0171 1.92H38.9994V2.69714H33.0171V1.92ZM35.4831 2.24H36.4421V7.72571H35.4831V2.24Z" fill="#8E98A6"/>
<path d="M42.0133 7.63429C41.6023 7.49714 41.2369 7.26857 40.9173 6.99429C40.5976 6.72 40.3693 6.4 40.2323 6.03429C40.0496 5.66857 39.9583 5.25714 39.9583 4.8C39.9583 4.34286 40.0496 3.93143 40.1866 3.56572C40.3236 3.2 40.5519 2.88 40.8716 2.60572C41.1456 2.33143 41.5109 2.14857 41.8763 1.96572C42.2873 1.82857 42.6983 1.73714 43.2006 1.73714C43.6573 1.73714 44.0683 1.82857 44.4793 1.96572C44.8446 2.10286 45.1643 2.33143 45.4383 2.65143C45.7123 2.92572 45.9406 3.29143 46.0776 3.70286C46.2146 4.11429 46.3059 4.57143 46.3059 5.07429H40.6889V4.29714H45.8949L45.3469 4.61714C45.3469 4.29714 45.2556 4.02286 45.1643 3.74857C45.0729 3.47429 44.8903 3.29143 44.7076 3.06286C44.5249 2.88 44.2966 2.74286 44.0226 2.65143C43.7486 2.56 43.4746 2.51429 43.1549 2.51429C42.8353 2.51429 42.5156 2.56 42.2416 2.65143C41.9676 2.74286 41.7392 2.88 41.5109 3.10857C41.3282 3.29143 41.1456 3.52 41.0542 3.79429C40.9629 4.06857 40.9173 4.34286 40.9173 4.70857C40.9173 5.07429 40.9629 5.39429 41.0999 5.66857C41.2369 5.94286 41.3739 6.17143 41.6023 6.4C41.8306 6.58286 42.1046 6.76572 42.4242 6.85714C42.7439 6.94857 43.1093 6.99429 43.4746 6.99429C43.9769 6.99429 44.4336 6.90286 44.8902 6.76572C45.3469 6.62857 45.7579 6.4 46.1233 6.12572V6.85714C45.7579 7.13143 45.3469 7.36 44.8446 7.54286C44.3423 7.72572 43.8399 7.77143 43.3833 7.77143C42.8809 7.81714 42.4243 7.77143 42.0133 7.63429Z" fill="#8E98A6"/>
<path d="M47.95 7.68V1.92H48.9089V7.72571H47.95V7.68ZM48.4523 4.38857H51.0553V5.16571H48.4523V4.38857ZM52.7906 7.68L50.1876 4.75428L52.6536 1.92H53.7953L51.3293 4.75428L54.0236 7.72571H52.7906V7.68Z" fill="#8E98A6"/>
<path d="M54.5718 1.92H60.5541V2.69714H54.5718V1.92ZM57.0834 2.24H58.0424V7.72571H57.0834V2.24Z" fill="#8E98A6"/>
<path d="M64.0703 7.49714L61.3303 1.87429H62.3806L65.0293 7.49714H64.0703ZM62.2893 9.41714C62.061 9.32571 61.8327 9.23429 61.6043 9.09714V8.36571C61.8327 8.50286 62.061 8.59429 62.2893 8.68571C62.5177 8.73143 62.746 8.77714 63.02 8.77714C63.294 8.77714 63.568 8.73143 63.7963 8.59429C64.0247 8.45714 64.2073 8.22857 64.3443 7.95429L67.2213 1.96572H68.226L65.075 8.32C64.9837 8.54857 64.8467 8.73143 64.7097 8.91429C64.5727 9.05143 64.4357 9.18857 64.253 9.32571C64.0703 9.41714 63.9333 9.50857 63.7506 9.55429C63.568 9.6 63.3853 9.64571 63.157 9.64571C62.7917 9.55429 62.5177 9.50857 62.2893 9.41714Z" fill="#8E98A6"/>
<path d="M69.4133 1.92H70.3723V4.11428L70.3267 4.29714V5.21143L70.3723 5.53143V9.41714H69.4133V1.92ZM70.418 3.56571C70.6463 3.2 70.8747 2.88 71.1487 2.60571C71.4227 2.33143 71.7423 2.14857 72.1077 2.01143C72.473 1.87428 72.8383 1.78286 73.2493 1.78286C73.6603 1.78286 74.0713 1.87428 74.4367 2.01143C74.802 2.14857 75.1217 2.37714 75.35 2.65143C75.624 2.92571 75.8067 3.24571 75.9437 3.61143C76.0807 3.97714 76.172 4.38857 76.172 4.84571C76.172 5.30286 76.0807 5.71428 75.9437 6.08C75.8067 6.44571 75.5783 6.76571 75.35 7.04C75.076 7.31428 74.802 7.49714 74.4367 7.68C74.0713 7.81714 73.706 7.90857 73.2493 7.90857C72.8383 7.90857 72.473 7.81714 72.1077 7.68C71.7423 7.54286 71.4227 7.31428 71.1487 7.04C70.8747 6.76571 70.6007 6.44571 70.418 6.08C70.1897 5.71428 70.0527 5.30286 69.9613 4.84571C70.0527 4.34286 70.1897 3.93143 70.418 3.56571ZM75.0303 3.88571C74.939 3.61143 74.802 3.38286 74.5737 3.2C74.391 3.01714 74.1627 2.83428 73.8887 2.74286C73.6147 2.65143 73.3407 2.56 73.0667 2.56C72.747 2.56 72.473 2.60571 72.199 2.74286C71.925 2.83428 71.6967 3.01714 71.4227 3.2C71.1943 3.38286 70.966 3.61143 70.7833 3.88571C70.6007 4.16 70.418 4.48 70.3267 4.8C70.4637 5.12 70.6007 5.44 70.7833 5.71428C70.966 5.98857 71.1943 6.21714 71.4227 6.4C71.651 6.58286 71.925 6.76571 72.199 6.85714C72.473 6.94857 72.747 6.99428 73.0667 6.99428C73.3863 6.99428 73.6603 6.94857 73.9343 6.85714C74.2083 6.76571 74.4367 6.58286 74.6193 6.4C74.802 6.21714 74.939 5.98857 75.076 5.71428C75.1673 5.44 75.213 5.16571 75.213 4.8C75.213 4.43428 75.1217 4.16 75.0303 3.88571Z" fill="#8E98A6"/>
<path d="M80.1907 3.97714C80.6017 3.97714 80.9214 3.97714 81.241 3.97714C81.5607 4.02286 81.789 4.06857 82.0174 4.11429C82.2457 4.16 82.4284 4.25143 82.5654 4.29714C82.7024 4.34286 82.7937 4.38857 82.7937 4.43429C82.8394 4.48 82.8394 4.61714 82.8394 4.84571C82.8394 5.07429 82.8394 5.39428 82.8394 5.85143C82.8394 6.03429 82.7937 6.26286 82.6567 6.49143C82.5197 6.72 82.337 6.94857 82.1087 7.17714C81.8804 7.40571 81.5607 7.54286 81.1954 7.68C80.83 7.81714 80.419 7.90857 79.9624 7.90857C79.597 7.90857 79.2774 7.86286 78.9577 7.77143C78.638 7.68 78.4097 7.54286 78.1814 7.40571C77.953 7.22286 77.7704 7.04 77.6334 6.81143C77.4964 6.58286 77.4507 6.30857 77.4507 5.98857C77.4507 5.62286 77.542 5.34857 77.679 5.12C77.8617 4.89143 78.0444 4.66286 78.3184 4.52571C78.5924 4.38857 78.8664 4.25143 79.186 4.16C79.5057 4.02286 79.8254 3.97714 80.1907 3.97714ZM82.5197 4.38857C82.5197 3.84 82.337 3.38286 81.9717 3.06286C81.6064 2.74286 81.0584 2.60571 80.282 2.60571C79.9167 2.60571 79.5057 2.65143 79.1404 2.74286C78.775 2.83429 78.364 3.01714 77.9987 3.24571V2.46857C78.364 2.24 78.775 2.05714 79.1404 1.96571C79.5514 1.87429 79.9624 1.82857 80.419 1.82857C80.8757 1.82857 81.241 1.87429 81.652 1.96571C82.0174 2.05714 82.337 2.24 82.611 2.46857C82.885 2.69714 83.1134 2.97143 83.2504 3.29143C83.3874 3.61143 83.4787 4.02286 83.4787 4.43429V7.72571H82.5197V4.38857ZM82.5197 4.98286C82.337 4.89143 82.1087 4.8 81.789 4.75429C81.4694 4.70857 81.1497 4.66286 80.7387 4.66286C80.5104 4.66286 80.282 4.66286 80.0537 4.70857C79.7797 4.70857 79.5514 4.8 79.323 4.84571C79.0947 4.89143 78.8664 5.02857 78.7294 5.21143C78.5467 5.34857 78.501 5.57714 78.501 5.85143C78.501 6.21714 78.638 6.49143 78.9577 6.72C79.2774 6.94857 79.6884 7.04 80.2364 7.04C80.5104 7.04 80.83 6.99429 81.104 6.90286C81.378 6.81143 81.6064 6.67429 81.8347 6.49143C82.063 6.30857 82.2457 6.08 82.337 5.85143C82.4284 5.62286 82.5197 5.34857 82.5197 4.98286Z" fill="#8E98A6"/>
<path d="M2.32894 19.9771C1.91794 19.84 1.55261 19.6114 1.23294 19.3371C0.913277 19.0629 0.684941 18.7429 0.502274 18.3771C0.319608 18.0114 0.228271 17.6 0.228271 17.1429C0.228271 16.6857 0.319608 16.2743 0.502274 15.9086C0.684941 15.5429 0.913277 15.2229 1.23294 14.9486C1.55261 14.6743 1.91794 14.4914 2.32894 14.3086C2.73994 14.1714 3.19661 14.08 3.74461 14.08C4.24694 14.08 4.74927 14.1714 5.16027 14.3086C5.57127 14.4457 5.93661 14.6743 6.25628 14.9486C6.57594 15.2229 6.80428 15.5429 6.94128 15.9086C7.12394 16.2743 7.21527 16.6857 7.21527 17.1429C7.21527 17.6 7.12394 18.0114 6.94128 18.3771C6.75861 18.7429 6.53028 19.0629 6.25628 19.3371C5.93661 19.6114 5.57127 19.7943 5.16027 19.9771C4.74927 20.16 4.29261 20.2057 3.74461 20.2057C3.19661 20.2057 2.73994 20.1143 2.32894 19.9771ZM4.74927 19.2457C5.06894 19.1543 5.29727 18.9714 5.52561 18.7886C5.75394 18.6057 5.89094 18.3771 6.02794 18.0571C6.16494 17.7829 6.21061 17.4629 6.21061 17.1429C6.21061 16.7771 6.16494 16.5029 6.02794 16.2286C5.89094 15.9543 5.75394 15.7257 5.52561 15.5429C5.29727 15.36 5.06894 15.1771 4.74927 15.0857C4.4296 14.9943 4.10994 14.9486 3.74461 14.9486C3.37928 14.9486 3.01394 14.9943 2.73994 15.0857C2.42027 15.1771 2.19193 15.36 1.9636 15.5429C1.73527 15.7257 1.59828 15.9543 1.46128 16.2286C1.32428 16.5029 1.2786 16.8229 1.2786 17.1429C1.2786 17.5086 1.32428 17.7829 1.46128 18.0571C1.59828 18.3314 1.73527 18.56 1.9636 18.7886C2.19193 18.9714 2.42027 19.1543 2.73994 19.2457C3.0596 19.3371 3.37928 19.3829 3.74461 19.3829C4.10994 19.3829 4.4296 19.3371 4.74927 19.2457Z" fill="#8E98A6"/>
<path d="M15.0242 17.8743C14.9785 18.24 14.8415 18.5143 14.6589 18.8343C14.4762 19.1086 14.2479 19.3829 13.9739 19.5657C13.6999 19.7943 13.3802 19.9314 13.0149 20.0229C12.6495 20.1143 12.2385 20.2057 11.8275 20.2057C11.3252 20.2057 10.9142 20.1143 10.5032 19.9771C10.0922 19.84 9.77255 19.6114 9.45288 19.3371C9.17888 19.0629 8.95055 18.7429 8.76788 18.3771C8.63088 18.0114 8.53955 17.6 8.53955 17.1429C8.53955 16.6857 8.63088 16.2743 8.76788 15.9086C8.90488 15.5429 9.13322 15.2229 9.45288 14.9486C9.72688 14.6743 10.0922 14.4914 10.5032 14.3086C10.9142 14.1257 11.3709 14.08 11.8275 14.08C12.2385 14.08 12.6495 14.1257 13.0149 14.2629C13.3802 14.4 13.6999 14.5371 13.9739 14.72C14.2479 14.9486 14.4762 15.1771 14.6589 15.4514C14.8415 15.7257 14.9785 16.0457 15.0242 16.4114H14.0652C14.0195 16.1829 13.9282 15.9543 13.7912 15.7714C13.6542 15.5886 13.4715 15.4057 13.2889 15.2686C13.1062 15.1314 12.8779 15.04 12.6039 14.9486C12.3755 14.8571 12.1015 14.8571 11.7819 14.8571C11.4165 14.8571 11.0969 14.9029 10.8229 14.9943C10.5489 15.0857 10.2749 15.2686 10.0922 15.4514C9.90955 15.6343 9.72688 15.8629 9.63555 16.1829C9.54421 16.4571 9.45288 16.7771 9.45288 17.0971C9.45288 17.4629 9.49855 17.7371 9.63555 18.0114C9.72688 18.2857 9.90955 18.5143 10.0922 18.7429C10.2749 18.9257 10.5489 19.1086 10.8229 19.2C11.0969 19.2914 11.4165 19.3371 11.7819 19.3371C12.0559 19.3371 12.3299 19.2914 12.6039 19.2457C12.8322 19.1543 13.0605 19.0629 13.2889 18.9257C13.4715 18.7886 13.6542 18.6514 13.7912 18.4229C13.9282 18.24 14.0195 18.0114 14.0652 17.7829H15.0242V17.8743Z" fill="#8E98A6"/>
<path d="M16.5312 20.0686V14.2629H20.4586C21.0066 14.2629 21.4632 14.4 21.7829 14.6286C22.1026 14.9029 22.2396 15.2686 22.2396 15.7257C22.2396 16.1371 22.1026 16.5029 21.7829 16.7314C21.4632 16.96 21.0522 17.1429 20.5042 17.1429L20.5956 16.96C21.2806 16.96 21.7829 17.0971 22.1026 17.3714C22.4679 17.6457 22.6049 18.0114 22.6049 18.4686C22.6049 18.6971 22.5592 18.9257 22.4679 19.1543C22.3766 19.3371 22.2396 19.52 22.0569 19.6571C21.8742 19.7943 21.6916 19.8857 21.4176 19.9771C21.1892 20.0686 20.8696 20.0686 20.5499 20.0686H16.5312ZM17.4446 19.7943L17.0792 19.3371H20.4129C20.8239 19.3371 21.0979 19.2457 21.3262 19.1086C21.5089 18.9714 21.6002 18.7429 21.6002 18.4229C21.6002 18.1486 21.4632 17.8743 21.2349 17.7371C21.0066 17.5543 20.6412 17.4629 20.1389 17.4629H17.0336V16.7771H20.0932C20.4586 16.7771 20.7782 16.6857 20.9609 16.5029C21.1436 16.32 21.2349 16.0914 21.2349 15.8171C21.2349 15.5429 21.1436 15.36 20.9609 15.1771C20.7782 15.04 20.5042 14.9486 20.1389 14.9486H17.0336L17.3989 14.5371V19.7943H17.4446Z" fill="#8E98A6"/>
<path d="M25.9385 19.9771C25.5275 19.84 25.1622 19.6114 24.8425 19.3371C24.5229 19.0629 24.2945 18.7429 24.1575 18.3771C23.9749 18.0114 23.8835 17.6 23.8835 17.1429C23.8835 16.6857 23.9749 16.2743 24.1119 15.9086C24.2489 15.5429 24.4772 15.2229 24.7969 14.9486C25.0709 14.6743 25.4362 14.4914 25.8016 14.3086C26.2126 14.1714 26.6235 14.08 27.1259 14.08C27.5825 14.08 27.9936 14.1714 28.4046 14.3086C28.7699 14.4457 29.0895 14.6743 29.3635 14.9943C29.6375 15.2686 29.8659 15.6343 30.0029 16.0457C30.1399 16.4571 30.2312 16.9143 30.2312 17.4171H24.6142V16.64H29.8202L29.2722 16.96C29.2722 16.64 29.1809 16.3657 29.0896 16.0914C28.9982 15.8171 28.8156 15.6343 28.6329 15.4057C28.4502 15.2229 28.2219 15.0857 27.9479 14.9943C27.6739 14.9029 27.3999 14.8571 27.0802 14.8571C26.7605 14.8571 26.4409 14.9029 26.1669 14.9943C25.8929 15.0857 25.6646 15.2229 25.4362 15.4514C25.2536 15.6343 25.0709 15.8629 24.9796 16.1371C24.8882 16.4114 24.8425 16.6857 24.8425 17.0514C24.8425 17.4171 24.8882 17.7371 25.0252 18.0114C25.1622 18.2857 25.2992 18.5143 25.5275 18.7429C25.7559 18.9257 26.0299 19.1086 26.3496 19.2C26.6692 19.2914 27.0346 19.3371 27.3999 19.3371C27.9022 19.3371 28.3589 19.2457 28.8156 19.1086C29.2722 18.9714 29.6832 18.7429 30.0485 18.4686V19.2C29.6832 19.4743 29.2722 19.7029 28.7699 19.8857C28.2676 20.0686 27.7652 20.1143 27.3085 20.1143C26.8062 20.2057 26.3495 20.1143 25.9385 19.9771Z" fill="#8E98A6"/>
<path d="M41.6023 14.2629V19.6114L41.3282 19.2914H42.6526V21.5771H41.8306V19.7943L42.0133 20.1143H31.8752V14.2629H32.8342V19.6114L32.5602 19.2914H36.5789L36.3049 19.6114V14.2629H37.2639V19.6114L36.9899 19.2914H41.0086L40.7346 19.6114V14.2629H41.6023Z" fill="#8E98A6"/>
<path d="M45.6666 19.9771C45.2556 19.84 44.8902 19.6114 44.5706 19.3371C44.2509 19.0629 44.0226 18.7429 43.8856 18.3771C43.7029 18.0114 43.6116 17.6 43.6116 17.1429C43.6116 16.6857 43.7029 16.2743 43.8399 15.9086C43.9769 15.5429 44.2052 15.2229 44.5249 14.9486C44.7989 14.6743 45.1642 14.4914 45.5296 14.3086C45.9406 14.1714 46.3516 14.08 46.8539 14.08C47.3106 14.08 47.7216 14.1714 48.1326 14.3086C48.4979 14.4457 48.8176 14.6743 49.0916 14.9943C49.3656 15.2686 49.5939 15.6343 49.7309 16.0457C49.8679 16.4571 49.9593 16.9143 49.9593 17.4171H44.3422V16.64H49.5482L49.0002 16.96C49.0002 16.64 48.9089 16.3657 48.8176 16.0914C48.7263 15.8171 48.5436 15.6343 48.3609 15.4057C48.1783 15.2229 47.9499 15.0857 47.6759 14.9943C47.4019 14.9029 47.1279 14.8571 46.8082 14.8571C46.4886 14.8571 46.1689 14.9029 45.8949 14.9943C45.6209 15.0857 45.3926 15.2229 45.1643 15.4514C44.9816 15.6343 44.7989 15.8629 44.7076 16.1371C44.6163 16.4114 44.5706 16.6857 44.5706 17.0514C44.5706 17.4171 44.6162 17.7371 44.7532 18.0114C44.8902 18.2857 45.0272 18.5143 45.2556 18.7429C45.4839 18.9257 45.7579 19.1086 46.0776 19.2C46.3973 19.2914 46.7626 19.3371 47.1279 19.3371C47.6302 19.3371 48.0869 19.2457 48.5436 19.1086C49.0002 18.9714 49.4112 18.7429 49.7766 18.4686V19.2C49.4112 19.4743 49.0002 19.7029 48.4979 19.8857C47.9956 20.0686 47.4932 20.1143 47.0366 20.1143C46.5342 20.2057 46.0776 20.1143 45.6666 19.9771Z" fill="#8E98A6"/>
<path d="M51.6033 14.2629H52.5623V20.0686H51.6033V14.2629ZM52.1513 16.7314H57.0376V17.5086H52.1513V16.7314ZM56.5809 14.2629H57.5399V20.0686H56.5809V14.2629Z" fill="#8E98A6"/>
<path d="M59.595 20.0686V14.2629H60.554V19.6114L60.1886 19.5657L64.6183 14.2629H65.8513V20.0686H64.938V14.6743L65.3033 14.72L60.828 20.0686H59.595Z" fill="#8E98A6"/>
<path d="M70.9204 17.3257L68.637 20.0229H67.4954L69.8244 17.3257H70.9204ZM72.6557 17.0514V17.7829H69.6417C69.322 17.7829 69.048 17.7371 68.8197 17.6457C68.5457 17.5543 68.363 17.4171 68.1804 17.28C67.9977 17.1429 67.8607 16.96 67.7694 16.7314C67.678 16.5029 67.6324 16.2743 67.6324 16C67.6324 15.7257 67.678 15.4971 67.7694 15.2686C67.8607 15.04 67.9977 14.8571 68.1804 14.72C68.363 14.5829 68.5914 14.4457 68.8197 14.3543C69.0937 14.2629 69.3677 14.2171 69.6417 14.2171H73.3407V20.0229H72.3817V14.5371L72.747 14.9486H69.7787C69.4134 14.9486 69.0937 15.04 68.8654 15.2229C68.637 15.4057 68.5457 15.68 68.5457 15.9543C68.5457 16.2743 68.637 16.5029 68.8654 16.6857C69.0937 16.8686 69.3677 16.96 69.7787 16.96H72.6557V17.0514Z" fill="#8E98A6"/>
</svg>
