<svg width="0" height="0" class="hidden">
  <symbol fill="none" xmlns="http://www.w3.org/2000/svg" viewBox="0 0 34 32" id="ic_arrow_hor">
    <path d="M23.1524 0L34 15.9188L23.1524 32H17.7286L28.1714 15.9188L17.7286 0H23.1524ZM29.3857 13.7259V18.1929H0V13.7259H29.3857Z" fill="currentColor"></path>
  </symbol>
  <symbol fill="none" xmlns="http://www.w3.org/2000/svg" viewBox="0 0 24 11" id="ic_menu">
    <rect width="24" height="2" fill="currentColor"></rect>
    <rect y="9" width="24" height="2" fill="currentColor"></rect>
  </symbol>
  <symbol fill="none" xmlns="http://www.w3.org/2000/svg" viewBox="0 0 25 25" id="ic_pinterest">
    <path d="M7.86171 24.0923C7.70673 22.6742 7.81672 21.314 8.12669 20.0015L9.37656 14.6158C9.17158 13.9621 9.0166 13.2128 9.0166 12.4635C9.0166 10.7161 9.86151 9.46646 11.1864 9.46646C12.1063 9.46646 12.7812 10.1051 12.7812 11.3396C12.7812 11.7294 12.7012 12.1694 12.5462 12.6697L12.0013 14.4624C11.8913 14.8069 11.8463 15.1312 11.8463 15.4179C11.8463 16.6675 12.8012 17.3715 14.0161 17.3715C16.1859 17.3715 17.7357 15.1237 17.7357 12.2046C17.7357 8.95605 15.6109 6.87921 12.4713 6.87921C8.9716 6.87921 6.75182 9.1572 6.75182 12.3303C6.75182 13.6101 7.14179 14.7994 7.90671 15.6065C7.65673 16.0264 7.39176 16.1068 6.9868 16.1068C5.73693 16.1068 4.54705 14.3443 4.54705 11.9406C4.54705 7.7894 7.87671 4.47551 12.5487 4.47551C17.4533 4.47551 20.5354 7.89249 20.5354 12.109C20.5354 16.3557 17.5357 19.5439 14.2986 19.5439C13.0187 19.5439 11.8938 18.9983 11.1089 18.0152L10.469 20.6075C10.124 21.9526 9.60904 23.2148 8.77912 24.4343C9.94901 24.7938 11.1089 25 12.4988 25C19.4056 25 25 19.4081 25 12.5088C24.9975 5.60445 19.4081 0 12.5013 0C5.59444 0 0 5.59187 0 12.4912C0 17.721 3.21968 22.2317 7.86171 24.0923Z" fill="currentColor"></path>
  </symbol>
  <symbol fill="none" xmlns="http://www.w3.org/2000/svg" viewBox="0 0 19 16" id="ic_tg">
    <path d="M4.6705 9.32584L0.380178 7.89884C0.380178 7.89884 -0.131996 7.68627 0.0326039 7.20488C0.0662895 7.10563 0.135192 7.02123 0.339602 6.87509C1.29045 6.19832 17.938 0.090994 17.938 0.090994C17.938 0.090994 18.4081 -0.0707734 18.686 0.0370719C18.8131 0.0863056 18.8942 0.141791 18.9624 0.344196C18.9869 0.417656 19.0014 0.574735 18.9999 0.731033C18.9984 0.843567 18.9853 0.947505 18.9754 1.11162C18.8743 2.78166 15.8403 15.2448 15.8403 15.2448C15.8403 15.2448 15.6589 15.974 15.0081 15.999C14.7708 16.0083 14.483 15.9591 14.1392 15.6567C12.863 14.536 8.45094 11.5093 7.47636 10.8443C7.42123 10.8068 7.40592 10.7583 7.39673 10.7106C7.38295 10.6403 7.45798 10.5536 7.45798 10.5536C7.45798 10.5536 15.1398 3.58346 15.3442 2.85199C15.3603 2.79494 15.3006 2.76759 15.2202 2.79182C14.7096 2.98328 5.86557 8.68423 4.88945 9.31411C4.8305 9.34928 4.6705 9.32584 4.6705 9.32584Z" fill="currentColor"></path>
  </symbol>
  <symbol fill="none" xmlns="http://www.w3.org/2000/svg" viewBox="0 0 32 20" id="ic_vk">
    <path d="M31.141 1.32369C31.34 0.610931 31.141 0 30.0466 0H26.5644C25.669 0 25.271 0.50911 25.072 1.01822C25.072 1.01822 23.2811 5.39657 20.7938 8.3494C19.9979 9.16398 19.5999 9.46944 19.202 9.46944C19.003 9.46944 18.605 9.16398 18.605 8.45122V1.42551C18.605 0.50911 18.406 0.101822 17.6101 0.101822H12.138C11.5411 0.101822 11.2426 0.509109 11.2426 0.916397C11.2426 1.73097 12.536 1.93462 12.6355 4.37834V9.67309C12.6355 10.7931 12.4365 10.9968 12.0385 10.9968C10.8446 10.9968 7.95937 6.51661 6.268 1.52733C5.96952 0.50911 5.57156 0.101822 4.67613 0.101822H1.19391C0.198985 0.101822 0 0.610932 0 1.12004C0 2.03644 1.1939 6.72025 5.47206 12.9314C8.35734 17.2079 12.4365 19.448 16.1177 19.448C18.3065 19.448 18.605 18.9389 18.605 18.0225V14.7642C18.605 13.746 18.804 13.5423 19.5004 13.5423C19.9979 13.5423 20.8933 13.8478 22.9827 15.8842C25.3705 18.328 25.7685 19.3462 27.0618 19.3462H30.5441C31.539 19.3462 32.0365 18.8371 31.738 17.8188C31.4395 16.8006 30.3451 15.3751 28.7532 13.6441C27.9573 12.6259 26.7634 11.6077 26.3654 11.0986C25.8679 10.3858 25.9674 10.0804 26.3654 9.46944C26.4649 9.46944 30.6436 3.36012 31.141 1.32369Z" fill="currentColor"></path>
  </symbol>
  <symbol fill="none" xmlns="http://www.w3.org/2000/svg" viewBox="0 0 20 20" id="ic_whatsapp">
    <path d="M0 20L1.41278 14.8643C0.541312 13.3615 0.0827901 11.6566 0.0834959 9.90978C0.0857144 4.44568 4.55295 0 10.0418 0C12.7057 0.00130463 15.206 1.03337 17.0861 2.90652C18.9663 4.77967 20.0011 7.26981 20 9.91761C19.9978 15.382 15.5301 19.8279 10.0419 19.8279C10.0416 19.8279 10.0422 19.8279 10.0419 19.8279H10.0379C8.37117 19.8273 6.73352 19.4112 5.2791 18.6218L0 20ZM5.52354 16.8276L5.82576 17.006C7.09655 17.7564 8.55329 18.1537 10.0384 18.1542H10.0418C14.6037 18.1542 18.3168 14.459 18.3186 9.9171C18.3194 7.71619 17.4593 5.64655 15.8966 4.08962C14.3339 2.53259 12.2558 1.67464 10.045 1.67394C5.47957 1.67394 1.76652 5.36886 1.76471 9.91048C1.7641 11.4668 2.20165 12.9827 3.03016 14.2942L3.227 14.6059L2.39083 17.6454L5.52354 16.8276Z" fill="currentColor"></path>
    <path fill-rule="evenodd" clip-rule="evenodd" d="M14.9642 12.4288C14.9027 12.3183 14.7387 12.2521 14.4926 12.1192C14.2465 11.9867 13.0369 11.3456 12.8114 11.2571C12.5859 11.1687 12.4218 11.1244 12.2578 11.3896C12.0938 11.655 11.6223 12.252 11.4787 12.4287C11.3353 12.6058 11.1917 12.6279 10.9457 12.4952C10.6997 12.3625 9.9069 12.0826 8.96712 11.1796C8.23573 10.477 7.74196 9.60906 7.59838 9.34367C7.45479 9.07848 7.58302 8.9351 7.70627 8.80288C7.81695 8.6842 7.95225 8.49323 8.0753 8.33868C8.19824 8.18369 8.23932 8.07328 8.32139 7.89628C8.40335 7.7196 8.36237 7.56461 8.30085 7.43207C8.23932 7.29943 7.74725 5.99489 7.54224 5.46442C7.34252 4.94769 7.13971 5.01751 6.98874 5.00956C6.84546 5.00161 6.68123 5 6.51721 5C6.35318 5 6.08656 5.06659 5.86111 5.33177C5.63556 5.59706 5 6.23827 5 7.54259C5 8.84702 5.88165 10.1072 6.00469 10.2843C6.12764 10.461 7.73957 13.1381 10.2077 14.2859C10.7947 14.5589 11.253 14.722 11.6103 14.8442C12.1997 15.0458 12.736 15.0174 13.16 14.9492C13.6327 14.8731 14.6157 14.308 14.8207 13.6889C15.0257 13.07 15.0257 12.5394 14.9642 12.4288Z" fill="currentColor"></path>
  </symbol>
  <symbol fill="none" xmlns="http://www.w3.org/2000/svg" viewBox="0 0 25 25" id="ic_youtube">
    <rect width="25" height="25" rx="8" fill="currentColor"></rect>
    <path d="M8.82349 7.35303V19.1177L18.3823 13.2354" fill="black"></path>
  </symbol>
</svg>