<svg width="1312" height="160" viewBox="0 0 1312 160" fill="none" xmlns="http://www.w3.org/2000/svg">
<path d="M73.6466 3.07141C87.6258 3.07141 100.241 4.77797 111.493 8.53241C122.744 12.2868 132.632 17.4065 140.815 24.2328C148.998 31.059 155.135 39.2505 159.909 48.4659C164.341 58.0227 166.728 68.262 166.728 79.8666C166.728 91.4713 164.341 101.711 159.909 111.267C155.476 120.824 148.998 128.674 140.815 135.501C132.632 142.327 122.744 147.446 111.493 151.201C100.241 154.955 87.2849 156.662 73.6466 156.662H0V3.07141H73.6466ZM28.6404 147.446L12.9564 133.111H75.6924C85.2392 133.111 93.4221 131.746 101.264 129.357C108.765 126.968 115.243 123.213 120.699 118.435C126.154 113.657 130.245 108.196 133.314 101.711C136.383 95.2257 137.746 88.0581 137.746 79.8666C137.746 72.0165 136.383 64.8489 133.314 58.0227C130.245 51.5377 126.154 45.7354 120.699 41.2984C115.243 36.52 108.765 33.1069 101.264 30.3764C93.7631 27.9872 85.2392 26.6219 75.6924 26.6219H12.9564L28.6404 12.2868V147.446Z" fill="black"/>
<path d="M287.766 3.07141L365.845 156.662H335.159L264.24 13.3108H275.151L204.232 156.662H173.546L251.625 3.07141H287.766ZM212.074 121.507V99.3214H325.613V121.507H212.074Z" fill="black"/>
<path d="M419.375 3.07141V144.716L406.419 133.111H528.822V157.003H390.394V3.41272H419.375V3.07141Z" fill="black"/>
<path d="M556.102 3.07141H584.742V156.662H556.102V3.07141Z" fill="black"/>
<path d="M645.774 106.831C646.456 111.609 648.161 115.705 650.889 119.459C653.616 123.214 657.367 126.627 661.799 129.357C666.232 132.088 671.687 134.136 677.824 135.501C683.961 136.866 690.781 137.549 697.941 137.549C705.101 137.549 711.579 136.866 717.716 135.842C723.512 134.818 728.627 133.112 732.718 131.064C736.81 129.016 739.878 126.285 742.265 123.555C744.652 120.483 745.675 117.411 745.675 113.657C745.675 110.585 744.993 108.196 743.97 105.807C742.947 103.759 740.901 101.711 738.174 100.004C735.446 98.2979 732.036 96.9326 727.604 95.9087C723.171 94.8848 718.057 93.8608 711.579 93.1782L676.46 88.7411C666.573 87.3759 658.049 85.6693 651.23 83.6215C644.07 81.2323 638.273 78.5018 633.841 75.0887C629.408 71.6756 625.999 67.5798 623.612 62.8014C621.566 58.0231 620.203 52.5621 620.203 46.4185C620.203 39.5922 621.907 33.1073 625.317 27.305C628.726 21.5027 633.841 16.7243 639.978 12.6286C646.456 8.5328 653.957 5.46099 662.822 3.41312C671.687 1.36525 681.916 0 692.826 0C703.737 0 713.966 1.02394 723.171 3.41312C732.377 5.80231 740.219 9.21543 747.038 13.3112C753.858 17.7482 758.972 22.8679 763.063 28.6702C767.155 34.8138 769.201 41.2988 769.542 48.8076H740.56C739.878 44.7119 738.514 40.9575 736.128 37.8857C733.741 34.4725 730.332 31.742 726.24 29.3528C722.149 26.9637 717.034 25.2571 711.238 23.8919C705.442 22.5266 699.304 21.844 692.144 21.844C685.325 21.844 679.529 22.5266 674.074 23.5505C668.618 24.5745 664.186 26.281 660.435 28.3289C656.685 30.3768 653.616 32.766 651.571 35.4965C649.525 38.227 648.502 41.6401 648.502 45.0532C648.502 50.5142 650.889 54.6099 655.662 57.6818C660.435 60.7536 668.618 62.8014 680.211 64.508L715.67 69.2864C726.581 70.6516 735.787 72.3582 743.288 74.7474C750.789 76.7952 756.585 79.5257 761.018 82.9389C765.45 86.0107 768.86 90.1064 770.905 94.5435C772.951 98.9805 773.974 104.442 773.974 110.926C773.974 118.435 772.269 124.92 768.519 131.064C764.768 137.207 759.654 142.327 753.176 146.423C746.356 150.519 738.515 153.932 728.968 156.321C719.421 158.71 709.192 159.734 697.6 159.734C686.007 159.734 675.097 158.369 665.55 155.98C655.662 153.59 647.479 149.836 640.319 145.058C633.159 140.279 627.704 134.818 623.612 128.333C619.521 121.848 617.134 114.681 616.793 106.831H645.774Z" fill="black"/>
<path d="M883.078 145.399H869.781L939.677 3.07141H970.363L891.943 156.662H860.234L781.814 3.07141H812.501L883.078 145.399Z" fill="black"/>
<path d="M1019.12 148.812L1005.48 133.795H1131.63V157.004H989.797V3.41333H1130.61V26.6226H1005.48L1019.12 11.6048V148.812ZM1125.16 68.604V91.1305H1011.62V68.604H1125.16Z" fill="black"/>
<path d="M1149.02 3.07141H1312V26.9633H1149.02V3.07141ZM1216.53 15.7H1245.17V157.003H1216.53V15.7Z" fill="black"/>
</svg>
